# xmcd
#
# Track frame offsets:
#	150
#	16516
#	41855
#	59586
#	80563
#	95941
#	117494
#	139769
#	159379
#	189069
#	205225
#
# Disc length: 3014 seconds
#
# Revision: 2
# Processed by: cddbd v1.5.2PL0 Copyright (c) Steve Scherf et al.
# Submitted via: audiograbber 1.83.01
#
DISCID=940bc40b
DTITLE=Beggars Blue - Saratoga Needs
DYEAR=2007
DGENRE=Blues
TTITLE0=It Ain't Easy
TTITLE1=I've Had Enough
TTITLE2=Solitary Blues
TTITLE3=Demon Blues
TTITLE4=Appreciate What I've done
TTITLE5=Deal With The Devil
TTITLE6=When I'm Gone
TTITLE7=Baby Don't You Break My Heart
TTITLE8=Goin' Out
TTITLE9=Love Me Two Times
TTITLE10=Lucky Man In Vegas
EXTD=
EXTT0=
EXTT1=
EXTT2=
EXTT3=
EXTT4=
EXTT5=
EXTT6=
EXTT7=
EXTT8=
EXTT9=
EXTT10=
PLAYORDER=
